<svg width="81" height="26" viewBox="0 0 81 26" fill="none" xmlns="http://www.w3.org/2000/svg">
<path d="M46.1625 1.8875C46.425 1.1875 46.95 0.75 47.7375 0.75C48.7 0.75 49.4875 1.45 49.4875 2.4125C49.4875 2.5 49.4656 2.60937 49.4438 2.71875C49.4219 2.82812 49.4 2.9375 49.4 3.025L41.0875 24.9C41.0875 24.9875 41 25.075 40.9125 25.075H40.5625C40.475 25.075 40.3875 24.9875 40.3875 24.9L32.075 3.025C32.075 2.88049 32.0485 2.7625 32.0247 2.65643C32.0052 2.56982 31.9875 2.49116 31.9875 2.4125C31.9875 1.45 32.775 0.75 33.7375 0.75C34.525 0.75 35.1375 1.1875 35.3125 1.8875L40.7375 16.325L46.1625 1.8875Z" fill="#9B57A3"/>
<path d="M52.4625 20.6125C52.4625 21.75 53.425 22.275 54.2125 22.275C55 22.275 55.875 21.75 55.9625 20.525V5.30001C55.9625 4.16251 55.0875 3.55001 54.2125 3.55001C53.3375 3.55001 52.4625 4.16251 52.4625 5.30001V20.6125Z" fill="#9B57A3"/>
<path fill-rule="evenodd" clip-rule="evenodd" d="M0.75 16.15C0.75 19.5625 3.4625 22.275 6.9625 22.275C8.39167 22.275 11.5125 21.6975 12.5625 19.3875C12.7375 19.125 12.825 18.6875 12.825 18.425C12.825 17.375 11.95 16.675 11.075 16.675C10.55 16.675 10.025 16.9375 9.7625 17.4625L9.675 17.55C9.15 18.425 8.3625 18.95 7.3125 18.95H6.9625C5.3875 18.95 4.1625 17.6375 4.1625 16.15V14.575H11.775C12.7375 14.575 13.525 13.7875 13.525 12.825V9.84999C13.525 6.34999 10.8125 3.63749 7.3125 3.63749H6.9625C3.55 3.63749 0.75 6.43749 0.75 9.84999V16.15ZM6.96252 7.04998C5.38752 7.04998 4.16252 8.27498 4.16252 9.84998V11.3375H10.025V9.84998C10.025 8.27498 8.80002 7.04998 7.31252 7.04998H6.96252Z" fill="#9B57A3"/>
<path d="M28.4875 22.275C27.7 22.275 26.7375 21.75 26.7375 20.6125V9.85001C26.7375 8.36251 25.5125 7.05001 23.9375 7.05001H20.875V20.6125C20.875 21.75 20 22.275 19.125 22.275C18.3375 22.275 17.375 21.75 17.375 20.6125V4.77501C17.375 4.68751 17.375 4.60001 17.4625 4.60001V4.51251C17.725 3.98751 18.1625 3.63751 18.775 3.55001H23.85C26.65 3.55001 29.975 5.21251 29.975 9.76251V20.525C30.2375 21.75 29.3625 22.275 28.4875 22.275Z" fill="#9B57A3"/>
<path d="M60.3375 21.3125C60.6875 21.925 61.3 22.275 62 22.275V22.45H71.45C72.5875 22.45 73.2 21.575 73.2 20.7C73.2 19.825 72.5875 18.95 71.45 18.95H64.8L72.85 7.13752C73.2875 6.35002 73.375 5.47502 73.025 4.77502C72.675 4.07502 72.0625 3.72502 71.275 3.72502H62.2625C61.125 3.72502 60.5125 4.60002 60.5125 5.47502C60.5125 6.35002 61.125 7.22502 62.2625 7.22502H68.5625L60.5125 18.8625C59.9875 19.5625 59.9 20.525 60.3375 21.3125Z" fill="#9B57A3"/>
<path d="M79.15 22.275C78.3625 22.275 77.4 21.75 77.4 20.6125V5.30001C77.4 4.16251 78.275 3.55001 79.15 3.55001C80.025 3.55001 80.9 4.16251 80.9 5.30001V20.525C80.8125 21.75 79.9375 22.275 79.15 22.275Z" fill="#9B57A3"/>
</svg>
